<svg id="icon-toolbar-images" viewBox="-50 -100 900 1000" preserveAspectRatio="none"><path d="M725,100V675a50,50,0,0,1-50,50H100a25,25,0,0,0-25,25h0a50,50,0,0,0,50,50H700A100,100,0,0,0,800,700h0V125a50,50,0,0,0-50-50h0A25,25,0,0,0,725,100Z"></path><path d="M625,675H50A50,50,0,0,1,0,625V50A50,50,0,0,1,50,0H625a50,50,0,0,1,50,50V625A50,50,0,0,1,625,675ZM75,75V550L189.64,435.36a50,50,0,0,1,70.71,0L300,475,439.79,336a50,50,0,0,1,70.47,0L600,425V75Z"></path><path d="M225,150h0a75,75,0,0,1,75,75h0a75,75,0,0,1-75,75h0a75,75,0,0,1-75-75h0A75,75,0,0,1,225,150Z"></path></svg>