<?xml version="1.0" encoding="utf-8"?>
<!-- Generator: Adobe Illustrator 23.0.2, SVG Export Plug-In . SVG Version: 6.00 Build 0)  -->
<svg version="1.1" xmlns="http://www.w3.org/2000/svg" xmlns:xlink="http://www.w3.org/1999/xlink" x="0px" y="0px"
	 viewBox="0 0 1024 1024" style="enable-background:new 0 0 1024 1024;" xml:space="preserve">
<style type="text/css">
	.st0{fill:#FFFFFF;}
	.st1{fill:#FF691C;}
</style>
<g id="白底">
	<rect x="77.84" y="175.83" class="st0" width="896.66" height="646.92"/>
</g>
<g id="橙色">
	<g>
		<path class="st1" d="M844,0H180C81,0,0,81,0,180v664c0,99,81,180,180,180h664c99,0,180-81,180-180V180C1024,81,943,0,844,0z
			 M476.47,175.83c109.63,0,211.82,35.4,287.75,99.68c23.67,20.03,44.09,42.44,60.69,66.6c32.83,47.81,50.18,102.16,50.18,157.18
			c0,54.95-17.29,109.21-50,156.94c-0.19,0.25-0.34,0.52-0.5,0.78c-0.03,0.06-0.07,0.11-0.1,0.17c-0.1,0.19-0.19,0.37-0.27,0.57
			c-0.06,0.14-0.12,0.28-0.17,0.43c-0.09,0.23-0.16,0.46-0.23,0.7c-0.06,0.22-0.12,0.45-0.16,0.67c-0.03,0.14-0.05,0.29-0.07,0.43
			c-0.04,0.3-0.06,0.6-0.07,0.9c0,0.11,0.01,0.21,0.01,0.32c0.01,0.27,0.03,0.54,0.06,0.81c0.01,0.11,0.03,0.22,0.05,0.33
			c0.06,0.33,0.13,0.65,0.23,0.97c0.03,0.09,0.06,0.18,0.09,0.27c0.1,0.3,0.22,0.6,0.36,0.88c0.02,0.04,0.03,0.07,0.04,0.11
			c4.83,10.35,10.15,20.78,15.8,31.02c7.58,13.73,14.86,25.46,20.72,34.89c6.31,10.16,11.29,18.18,13.94,24.21
			c2.49,5.67,1.78,7.07,1.77,7.09c-0.79,1.11-6.94,3.35-24.17-0.74c-13.84-3.29-29.35-9.34-39.26-13.92
			c-13.77-6.34-26.8-14.46-38.74-24.13c-0.01-0.01-0.02-0.02-0.03-0.02c-0.16-0.13-0.32-0.24-0.48-0.35
			c-0.06-0.04-0.11-0.08-0.17-0.12c-0.16-0.1-0.32-0.19-0.48-0.28c-0.07-0.04-0.14-0.08-0.21-0.12c-0.14-0.07-0.28-0.13-0.42-0.19
			c-0.1-0.05-0.2-0.1-0.31-0.14c-0.11-0.04-0.21-0.07-0.32-0.11c-0.14-0.05-0.28-0.1-0.42-0.14c-0.08-0.02-0.16-0.04-0.24-0.06
			c-0.17-0.04-0.34-0.09-0.51-0.12c-0.08-0.01-0.15-0.02-0.23-0.03c-0.17-0.03-0.35-0.05-0.52-0.07c-0.13-0.01-0.26-0.01-0.39-0.01
			c-0.12,0-0.25-0.01-0.37-0.01c-0.2,0-0.41,0.02-0.61,0.03c-0.05,0-0.1,0-0.15,0.01c-0.23,0.02-0.47,0.06-0.7,0.11
			c-0.02,0-0.04,0.01-0.06,0.01c-0.21,0.04-0.42,0.1-0.63,0.16c-0.04,0.01-0.08,0.02-0.11,0.03c-0.17,0.05-0.33,0.12-0.5,0.18
			c-0.08,0.03-0.16,0.06-0.24,0.09c-0.12,0.05-0.24,0.11-0.36,0.17c-0.12,0.06-0.24,0.11-0.36,0.17c-0.08,0.05-0.17,0.1-0.25,0.15
			c-0.15,0.09-0.3,0.17-0.44,0.27c-0.07,0.05-0.13,0.1-0.2,0.15c-0.15,0.11-0.3,0.22-0.45,0.34c-0.01,0.01-0.02,0.02-0.04,0.03
			c-75.92,64.26-178.11,99.66-287.75,99.66c-46.73,0-92.46-6.5-135.92-19.31c-13.1-3.85-26.15-8.34-38.79-13.35
			C163.64,735.31,77.84,623.88,77.84,499.29s85.8-236.02,223.92-290.79c12.64-5.02,25.69-9.51,38.8-13.36
			C384.01,182.33,429.73,175.83,476.47,175.83z M864.26,270.26c-5.83,9.38-13.07,21.05-20.59,34.66
			c-3.75,6.8-7.37,13.74-10.83,20.72c-15.3-21.01-33.37-40.66-53.87-58.55c10.25-7.54,21.15-14.01,32.52-19.26
			c28.17-12.98,62.32-21.77,68.35-13.36C883.41,239.44,875.38,252.37,864.26,270.26z M915.08,573.32c-1.25,0-2.52-0.26-3.74-0.82
			c-4.52-2.07-6.51-7.41-4.44-11.93c9.03-19.74,13.6-40.36,13.6-61.28c0-20.92-4.58-41.54-13.6-61.28
			c-2.07-4.52-0.08-9.86,4.44-11.93c4.52-2.06,9.86-0.08,11.93,4.44c10.11,22.11,15.23,45.24,15.23,68.77
			c0,23.52-5.13,46.66-15.23,68.77C921.75,571.37,918.49,573.32,915.08,573.32z M955.38,581.16c-1.55,3.21-4.77,5.08-8.11,5.08
			c-1.31,0-2.65-0.29-3.91-0.9c-4.47-2.16-6.35-7.55-4.18-12.02c11.5-23.78,17.33-48.68,17.33-74.03c0-25.34-5.83-50.25-17.33-74.03
			c-2.16-4.47-0.29-9.86,4.19-12.02c4.47-2.16,9.86-0.29,12.02,4.18c12.69,26.24,19.12,53.78,19.12,81.86
			C974.5,527.37,968.07,554.92,955.38,581.16z"/>
		<circle class="st1" cx="642.02" cy="499.29" r="26.9"/>
		<circle class="st1" cx="732.47" cy="499.29" r="26.9"/>
		<circle class="st1" cx="299.02" cy="466.64" r="13.25"/>
		<circle class="st1" cx="407.38" cy="456.19" r="13.25"/>
		<path class="st1" d="M352.06,491.05c-12.63,0-22.73-3.77-29.26-7.16c-2.94-1.53-4.08-5.15-2.56-8.09
			c1.53-2.94,5.15-4.08,8.09-2.56c5.99,3.11,15.69,6.63,27.89,5.64c12.23-0.98,21.26-6.01,26.69-10.06c2.66-1.98,6.42-1.43,8.4,1.22
			c1.98,2.66,1.43,6.42-1.22,8.4c-6.69,4.99-17.83,11.19-32.9,12.4C355.44,490.98,353.73,491.05,352.06,491.05z"/>
		<path class="st1" d="M359.01,306.68c-105.94,0-192.13,86.19-192.13,192.13c0,105.94,86.19,192.13,192.13,192.13
			s192.12-86.19,192.12-192.13C551.14,392.86,464.95,306.68,359.01,306.68z M359.01,674.93c-55.04,0-104.26-25.39-136.59-65.06
			c2.61-6.25,4.85-12.82,6.76-19.88c8.5-31.4,6.91-51.07,5.37-70.1c-1.09-13.49-2.13-26.39,0.36-42.26
			c-9.54-4.23-20.71-14.59-25.78-27.1c-11.36-28.02-2.66-44.1,5.96-48.08c12.63-5.83,23.16,3.91,32.45,12.5
			c6.11,5.65,7.72,6.97,13.4,7.93c17.32-17.81,42.71-29.88,75.37-35.54c25.02-4.33,49.46-2.7,70.68,4.73
			c11.56,4.05,22.2,9.84,31.62,17.12c5.2-1.8,6.63-3.42,11.66-9.84c7.81-9.96,16.66-21.24,30.05-17.49
			c9.14,2.56,20.28,17.06,13.51,46.53c-3.17,13.79-11.82,25.44-19.76,30.86c4.46,14.76,5.03,29.34,5.57,43.62
			c0.94,24.54,1.82,47.71,20.8,73.08c3.26,4.35,6.72,8.3,10.45,11.93C480.26,639.92,423.65,674.93,359.01,674.93z"/>
	</g>
</g>
</svg>
