<svg xmlns="http://www.w3.org/2000/svg" viewBox="0 0 1024 1024"><defs><style>.cls-1{fill:#fff;}.cls-2{fill:#ff691c;}.cls-3{fill:#603813;}</style></defs><title>wys资源 7</title><g id="图层_2" data-name="图层 2"><g id="图层_12" data-name="图层 12"><rect id="白" class="cls-1" x="59.84" y="144.49" width="914.66" height="709.6"/><g id="橙"><path class="cls-2" d="M844,0H180C81,0,0,81,0,180V844c0,99,81,180,180,180H844c99,0,180-81,180-180V180C1024,81,943,0,844,0Zm39.09,499.29c0,58.71-18.71,113.87-51.56,161.7q6.9,14.81,15.64,30.73c23.7,42.93,43.4,64.31,35.92,74.72-9.34,13-52.93-2.67-73.28-12.06a191.69,191.69,0,0,1-40.42-25.18c-74,62.61-177.87,101.55-292.92,101.55a488.69,488.69,0,0,1-138.18-19.64c-13.5-4-26.69-8.52-39.48-13.59-135.56-53.76-229-167.09-229-298.23s93.41-244.47,229-298.23c12.79-5.08,26-9.63,39.48-13.6a488.69,488.69,0,0,1,138.18-19.63c115.07,0,219,39,292.92,101.57a191.72,191.72,0,0,1,40.42-25.2c20.35-9.37,63.94-25.09,73.28-12.06,7.48,10.43-12.22,31.81-35.92,74.71-5.85,10.6-11,20.87-15.67,30.73C864.35,385.42,883.09,440.57,883.09,499.29Zm32,74a9,9,0,0,1-8.18-12.75,144.86,144.86,0,0,0,0-122.56,9,9,0,1,1,16.37-7.48,162.86,162.86,0,0,1,0,137.53A9,9,0,0,1,915.08,573.32Zm40.3,7.84a9,9,0,0,1-16.21-7.84,166.79,166.79,0,0,0,0-148.06,9,9,0,0,1,16.21-7.83,184.82,184.82,0,0,1,0,163.73Z"/><circle class="cls-2" cx="642.02" cy="499.29" r="26.9"/><circle class="cls-2" cx="732.47" cy="499.29" r="26.9"/><path class="cls-2" d="M230.72,590.54C247.2,529.7,229.29,508,238,464.33c-7.94-1.31-22.89-12.17-28.92-27-10.4-25.66-3.36-40.2,3.12-43.19,9.14-4.22,17.42,2.79,27.65,12.25,8,7.44,10.4,9.19,20.94,10.59v0c20.48-22.69,50.75-33.56,79.46-38.53,41.64-7.22,79.59,1.58,107.05,24.19,10-3,12.08-5.15,18.78-13.7,8.61-11,15.67-19.2,25.37-16.49a9.6,9.6,0,0,1,2.86,1.41,183.63,183.63,0,0,0-114.52-58A188.89,188.89,0,0,0,359,314.67,184.11,184.11,0,0,0,220.37,619.94C224.49,609.4,228.9,597.27,230.72,590.54Z"/><path class="cls-2" d="M499,379.13c4,6.66,6.31,18.27,2.36,35.47-3.59,15.62-14.76,28.63-22.38,31.18l-.65-.87c16.17,42.79-4.38,85.2,31.22,132.77,1.73,2.32,5.83,7.22,9.78,11.81A184.2,184.2,0,0,0,499,379.13Z"/></g><g id="线"><path class="cls-3" d="M891.31,747.45c-3.17-7.2-8.45-15.71-15.13-26.47-6-9.74-12.9-20.77-20.25-34.09-4.57-8.28-8.89-16.68-12.92-25,32.78-49.62,50.08-105.7,50.08-162.55s-17.3-112.9-50.1-162.55c4.08-8.44,8.41-16.85,12.94-25.05,7.34-13.3,14.19-24.32,20.23-34,6.69-10.77,12-19.28,15.14-26.5,1.67-3.79,6.74-15.34-.08-24.84s-20.85-11.53-43-6.27c-19,4.51-37.43,12.68-42.63,15.08a201,201,0,0,0-36,21.48c-37.08-30.11-80.07-53.94-127.92-70.89-52.23-18.5-107.82-27.88-165.21-27.88a498.18,498.18,0,0,0-141,20c-13.62,4-27.2,8.67-40.35,13.89C225.86,219.23,167.25,261.84,125.62,315c-43,54.93-65.78,118.66-65.78,184.3s22.75,129.36,65.78,184.3c41.63,53.15,100.24,95.76,169.5,123.22,13.15,5.22,26.73,9.9,40.34,13.89a498.3,498.3,0,0,0,141,20c57.38,0,113-9.38,165.2-27.87,47.86-17,90.85-40.78,127.93-70.88a202.33,202.33,0,0,0,36,21.46c5.19,2.39,23.6,10.56,42.65,15.09a91.26,91.26,0,0,0,20.7,2.82c10.54,0,17.89-3,22.24-9.09C898,762.78,893,751.24,891.31,747.45ZM814,253.28a233.57,233.57,0,0,1,36.59-13.21c16.53-4.23,22.57-2.73,24.12-2.11-.3,4.59-8.38,17.6-15.54,29.14C853.3,276.53,846,288.27,838.42,302q-4.42,8-8.59,16.23A359.46,359.46,0,0,0,785.21,270,180.67,180.67,0,0,1,814,253.28Zm36.59,505.24A232.88,232.88,0,0,1,814,745.3a182.31,182.31,0,0,1-38.32-23.87.1.1,0,0,0,0,0c-.18-.15-.38-.28-.57-.42l-.24-.17c-.19-.12-.39-.23-.59-.34l-.28-.16c-.17-.09-.34-.16-.52-.24l-.38-.17-.41-.14-.52-.17-.32-.08-.62-.14-.34-.05-.6-.08-.55,0h-.4a7.55,7.55,0,0,0-.83,0h-.12c-.31,0-.62.08-.92.14h0c-.28.06-.55.13-.83.21l-.1,0c-.22.06-.43.14-.64.22l-.29.11c-.15.06-.3.14-.44.21l-.46.22-.3.18-.56.34-.22.17c-.2.14-.39.29-.58.44l0,0c-75.56,63.95-177.29,99.18-286.46,99.18a478.35,478.35,0,0,1-135.36-19.23c-13-3.83-26-8.3-38.62-13.3C165.16,733.76,79.84,623,79.84,499.29s85.32-234.47,222.65-288.94c12.59-5,25.58-9.46,38.63-13.29a478.23,478.23,0,0,1,135.35-19.23c109.15,0,210.88,35.23,286.46,99.21a336.84,336.84,0,0,1,60.33,66.2c32.6,47.48,49.83,101.44,49.83,156.05S855.94,607.65,823.49,655a10,10,0,0,0-1.91,4.92h0a10,10,0,0,0,.11,2.83s0,.07,0,.11a7.38,7.38,0,0,0,.19.78l0,.14c.09.28.18.56.29.84v0c.1.27.22.53.34.79,4.85,10.37,10.18,20.83,15.85,31.09,7.6,13.77,14.9,25.53,20.77,35,7.15,11.52,15.21,24.5,15.52,29.09C873.16,761.24,867.12,762.75,850.59,758.52Z"/><circle class="cls-3" cx="299.22" cy="456.95" r="14.17"/><circle class="cls-3" cx="415.11" cy="445.78" r="14.17"/><path class="cls-3" d="M356,482.63a67.55,67.55,0,0,1-31.1-7.61,6,6,0,0,1,5.53-10.65,55.56,55.56,0,0,0,58.81-4.75,6,6,0,1,1,7.18,9.62,67.64,67.64,0,0,1-35,13.18C359.53,482.56,357.72,482.63,356,482.63Z"/><path class="cls-3" d="M550.71,511.57c0-.4,0-.81.07-1.21.09-1.43.15-2.85.21-4.29l.06-1.81c.05-1.55.07-3.1.08-4.66,0-.27,0-.53,0-.8,0-2.93-.07-5.87-.2-8.79,0-.47-.06-.94-.08-1.41-.05-1-.1-1.9-.17-2.84s-.13-1.74-.2-2.6c0-.54-.08-1.08-.13-1.61-.1-1.14-.22-2.28-.34-3.42,0-.25,0-.5-.08-.75-.15-1.35-.32-2.7-.5-4.05a.22.22,0,0,0,0-.08,191.65,191.65,0,0,0-45.71-100.82l-1.51-1.71-.35-.4-.94-1-.78-.86-.34-.35c-.92-1-1.85-2-2.79-2.95l-.44-.46a191.67,191.67,0,0,0-116-56.81,196.26,196.26,0,0,0-21.6-1.2c-1.12,0-2.23,0-3.35.05l-1.76,0-2.9.11c-.85,0-1.7.07-2.54.12l-2.64.17q-1.41.09-2.82.21l-2.43.21c-1.06.1-2.12.22-3.18.34L336,308l-.81.11-1.71.23-3.24.45-1,.16c-1.36.21-2.71.44-4.06.67l-.19,0c-79.57,14.19-141,76.83-155,155,0,.14-.05.28-.08.42-.24,1.38-.47,2.76-.69,4.15,0,.24-.07.48-.11.71-.19,1.31-.38,2.62-.55,3.94,0,.28-.07.57-.11.85-.16,1.29-.31,2.59-.44,3.88,0,.3-.07.59-.1.88-.13,1.33-.24,2.66-.35,4l-.06.76c-.11,1.44-.2,2.89-.28,4.34,0,.14,0,.28,0,.42q-.25,4.86-.26,9.77c0,94.61,68.74,174.71,161.18,189.63l.38.05c1.35.22,2.7.42,4.05.61l2.43.31,1.29.17.65.07c1.19.14,2.39.26,3.59.38l2.11.2c1.14.1,2.29.18,3.43.26l2,.13c1.54.09,3.08.15,4.63.2l.75,0c1.89.06,3.78.09,5.68.09.77,0,1.53,0,2.3,0,1.17,0,2.35,0,3.52-.06.95,0,1.9-.08,2.85-.13s2.12-.09,3.17-.16l2.86-.2,3.06-.26,3.08-.31,1-.11c.86-.09,1.71-.21,2.57-.32l1.51-.19A191.81,191.81,0,0,0,550.71,511.57Zm-169.89,162-2.8.32c-1,.11-2,.22-3.06.31l-2.43.2c-1,.08-2,.16-3.08.22l-2.06.1c-1.17.06-2.33.11-3.5.14-.44,0-.89,0-1.33,0q-4.55.09-9.08,0l-.68,0c-1.36,0-2.72-.11-4.08-.19l-1.66-.11c-1-.07-2.08-.14-3.11-.23l-1.92-.18c-1.07-.1-2.13-.21-3.19-.34l-1.68-.2-2.2-.28-3.13-.46-.83-.13a176.16,176.16,0,0,1-102.93-56.12,183.13,183.13,0,0,0,8.44-24.45c9.67-35.68,7.79-58.81,6.14-79.22-1.22-15.11-2.37-29.39,1.18-47.37,0-.07,0-.13.06-.21s0-.09,0-.14c.41-2.05.89-4.19,1.48-6.53A87.11,87.11,0,0,1,265.18,421c16.67-18.46,42.25-30.79,76-36.63,39.05-6.77,74.86,1,101.06,22a5.88,5.88,0,0,0,2.11,1.73,104.22,104.22,0,0,1,16.9,18.11A86.17,86.17,0,0,1,472.67,447c6.06,16,6.67,32.11,7.32,49.13,1,27,2.09,54.9,24.7,85.13,1.88,2.5,3.84,4.93,5.88,7.26a176.68,176.68,0,0,1-128,84.79ZM183.48,513.22c-.09-1.1-.17-2.21-.24-3.31l0-.59c-.06-1-.12-2.06-.16-3.1l0-.69c-.08-2.24-.13-4.48-.13-6.73,0-1.62,0-3.23.07-4.84a2.26,2.26,0,0,1,0-.26c0-1.47.1-2.94.18-4.4,0-.24,0-.48,0-.72.08-1.35.17-2.69.28-4,0-.23,0-.46.05-.68q.18-2.17.42-4.32a1.94,1.94,0,0,0,0-.24,175.05,175.05,0,0,1,15-54.08,85.35,85.35,0,0,0,4.46,14.33c5.36,13.2,17.56,24.43,27.67,28.86-2.73,17.12-1.62,30.92-.45,45.43,1.65,20.39,3.36,41.47-5.76,75.12a176.77,176.77,0,0,1-5.57,17.15,176.06,176.06,0,0,1-35.86-92.68ZM340.63,323.64c1-.1,1.95-.21,2.94-.29.51-.05,1-.08,1.54-.12,4.59-.36,9.22-.56,13.9-.56,1.12,0,2.24,0,3.36,0l.84,0c1,0,2.07.06,3.11.11l1.26.05c1.15.06,2.3.12,3.44.2l.54,0a176.89,176.89,0,0,1,106.16,45.59c-6.33,3.67-11.57,10.33-16.42,16.51-5.42,6.92-7,8.72-12.83,10.72-28.78-22.35-67.45-30.66-109.3-23.41-35.05,6.07-62.14,18.87-80.62,38-6.3-1.06-8.11-2.53-14.67-8.6s-13.45-12.44-21.25-14.49a176.12,176.12,0,0,1,115.74-63.6C339.12,323.79,339.87,323.72,340.63,323.64ZM535.05,493.39c0,1.61.07,3.23.08,4.85,0,.18,0,.37,0,.55,0,.42,0,.84,0,1.26,0,1.11,0,2.23,0,3.35,0,.59,0,1.17-.06,1.76,0,1-.08,2.1-.14,3.14,0,.49,0,1-.08,1.45-.08,1.32-.18,2.63-.29,3.94,0,.2,0,.39,0,.59a176.44,176.44,0,0,1-17.72,62.94c-.83-1-1.64-2.07-2.44-3.13C493.93,546.86,493,522,492,495.69c-.58-15.27-1.19-31-6-46.83,8.47-5.66,17.8-18.12,21.2-32.92a90.13,90.13,0,0,0,1.69-9.7A176.09,176.09,0,0,1,535,491.91ZM481.58,437.2A99.68,99.68,0,0,0,471,419.09a117.25,117.25,0,0,0-12.55-14.46c4.82-2.68,7.72-6.11,12.34-12,7.35-9.38,11.93-14.21,16.41-14.64l1.25,1.32c1.5,1.61,3,3.31,4.49,5.06,1.13,1.32,2.23,2.66,3.32,4,1.43,5.65,1.78,13.81-.76,24.86C493.08,423.62,486.82,432.65,481.58,437.2ZM250,420.72a100.39,100.39,0,0,0-16.23,35c-.05.19-.09.37-.14.56-6.33-3.56-14.93-11.16-19-21.22-9.12-22.51-3.05-34,.07-35.48,5.11-2.36,10.63,1.55,21.07,11.21C241.27,415.91,244.7,418.84,250,420.72Z"/></g></g></g></svg>