<svg xmlns="http://www.w3.org/2000/svg" class="icon-22AiRD" aria-hidden="false" viewBox="0 0 24 24" x="0" y="0" width="24" height="24" name="Nova_People"><path clip-rule="evenodd" fill="currentColor" fill-rule="evenodd" d="M 14 8.00598 C 14 10.211 12.206 12.006 10 12.006 C 7.795 12.006 6 10.211 6 8.00598 C 6 5.80098 7.794 4.00598 10 4.00598 C 12.206 4.00598 14 5.80098 14 8.00598 Z M 2 19.006 C 2 15.473 5.29 13.006 10 13.006 C 14.711 13.006 18 15.473 18 19.006 V 20.006 H 2 V 19.006 Z" /><path clip-rule="evenodd" fill="currentColor" fill-rule="evenodd" d="M 14 8.00598 C 14 10.211 12.206 12.006 10 12.006 C 7.795 12.006 6 10.211 6 8.00598 C 6 5.80098 7.794 4.00598 10 4.00598 C 12.206 4.00598 14 5.80098 14 8.00598 Z M 2 19.006 C 2 15.473 5.29 13.006 10 13.006 C 14.711 13.006 18 15.473 18 19.006 V 20.006 H 2 V 19.006 Z" /><path fill="currentColor" d="M 20.0001 20.006 H 22.0001 V 19.006 C 22.0001 16.4433 20.2697 14.4415 17.5213 13.5352 C 19.0621 14.9127 20.0001 16.8059 20.0001 19.006 V 20.006 Z" /><path fill="currentColor" d="M 14.8834 11.9077 C 16.6657 11.5044 18.0001 9.9077 18.0001 8.00598 C 18.0001 5.96916 16.4693 4.28218 14.4971 4.0367 C 15.4322 5.09511 16.0001 6.48524 16.0001 8.00598 C 16.0001 9.44888 15.4889 10.7742 14.6378 11.8102 C 14.7203 11.8418 14.8022 11.8743 14.8834 11.9077 Z" /></svg>